<?xml version="1.0" encoding="UTF-8" standalone="no"?>
<svg width="313px" height="342px" viewBox="0 0 313 342" version="1.1" xmlns="http://www.w3.org/2000/svg" xmlns:xlink="http://www.w3.org/1999/xlink">
    <!-- Generator: Sketch 41.2 (35397) - http://www.bohemiancoding.com/sketch -->
    <title>Page 1</title>
    <desc>Created with Sketch.</desc>
    <defs>
        <polygon id="path-1" points="198.712072 0.391164179 0.0253414062 0.391164179 0.0253414062 207.298155 198.712072 207.298155 198.712072 0.391164179"></polygon>
    </defs>
    <g id="Page-1" stroke="none" stroke-width="1" fill="none" fill-rule="evenodd">
        <g id="Artboard-Copy-95" transform="translate(-133.000000, -249.000000)">
            <g id="Page-1" transform="translate(133.000000, 249.000000)">
                <path d="M228,208.500389 C228,271.737143 176.960397,323 114,323 C51.0396034,323 0,271.737143 0,208.500389 C0,145.262857 51.0396034,94 114,94 C176.960397,94 228,145.262857 228,208.500389" id="Fill-1" fill="#FF9B44"></path>
                <g id="Group-5" transform="translate(114.000000, 0.000000)">
                    <mask id="mask-2" fill="white">
                        <use xlink:href="#path-1"></use>
                    </mask>
                    <g id="Clip-4"></g>
                    <path d="M198.712072,207.298155 L198.712072,207.298155 C198.712072,95.8443045 110.52942,4.96848358 0.0253414062,0.390931343 L0.0253414062,207.298155 L198.712072,207.298155 Z" id="Fill-3" fill="#FEFEFE" mask="url(#mask-2)"></path>
                </g>
                <path d="M134.164013,265.688569 C133.514037,264.886263 132.662725,264.247646 131.613251,263.774256 C130.563776,263.301633 129.550763,263.064938 128.574212,263.064938 C128.070877,263.064938 127.5612,263.107973 127.044389,263.194044 C126.525992,263.279347 126.060704,263.445341 125.646938,263.688184 C125.231587,263.932565 124.885197,264.247646 124.603805,264.634966 C124.323205,265.021518 124.182905,265.515658 124.182905,266.118924 C124.182905,266.634582 124.293877,267.064938 124.51582,267.408453 C124.736971,267.753506 125.062752,268.053987 125.491578,268.3122 C125.920404,268.569645 126.430081,268.807109 127.022194,269.021518 C127.612722,269.236695 128.278552,269.45879 129.018892,269.688569 C130.083427,270.032085 131.192351,270.412488 132.345664,270.827474 C133.498976,271.243996 134.548451,271.795773 135.495673,272.484342 C136.441311,273.172142 137.225246,274.025937 137.846687,275.04342 C138.467336,276.060903 138.778057,277.329683 138.778057,278.848991 C138.778057,280.598079 138.445142,282.111239 137.780104,283.386936 C137.115067,284.662632 136.22016,285.717003 135.096175,286.548511 C133.972191,287.380788 132.685712,287.99635 131.23674,288.397502 C129.787767,288.798655 128.293613,289 126.755862,289 C124.507894,289 122.334434,288.619597 120.234692,287.860327 C118.134157,287.100288 116.389524,286.017483 115,284.61268 L119.96836,279.709702 C120.737235,280.627281 121.750248,281.394236 123.007398,282.010567 C124.264549,282.627666 125.513772,282.935062 126.755862,282.935062 C127.317062,282.935062 127.864786,282.878194 128.39745,282.763689 C128.929322,282.648415 129.395403,282.461671 129.794108,282.204227 C130.193606,281.946013 130.51146,281.601729 130.748464,281.171374 C130.984675,280.741787 131.103574,280.22536 131.103574,279.623631 C131.103574,279.050336 130.954554,278.563112 130.659687,278.161191 C130.364027,277.760038 129.942334,277.394236 129.395403,277.064553 C128.847678,276.73487 128.168373,276.433622 127.354317,276.161575 C126.541053,275.888761 125.616817,275.595965 124.582403,275.279347 C123.576524,274.964265 122.59284,274.591547 121.631349,274.161191 C120.670652,273.731604 119.813792,273.179059 119.058392,272.505091 C118.304578,271.831892 117.698989,271.014986 117.240042,270.054371 C116.781095,269.093756 116.552018,267.92488 116.552018,266.548511 C116.552018,264.857061 116.907127,263.408453 117.617346,262.204995 C118.327565,261 119.258141,260.010951 120.411454,259.236311 C121.564766,258.463208 122.866306,257.89683 124.316071,257.538713 C125.764251,257.179827 127.228285,257 128.707378,257 C130.482132,257 132.294141,257.31585 134.142612,257.946782 C135.99029,258.577714 137.609684,259.509894 139,260.741787 L134.164013,265.688569 Z" id="Fill-6" fill="#FEFEFE"></path>
                <path d="M160.112115,277.453476 C160.112115,276.750915 160.003741,276.06482 159.786995,275.39127 C159.571023,274.718505 159.252871,274.126503 158.83486,273.61448 C158.415301,273.102457 157.888143,272.685311 157.253387,272.363042 C156.617082,272.041558 155.880919,271.880815 155.043349,271.880815 C154.234421,271.880815 153.512192,272.041558 152.876661,272.363042 C152.241904,272.685311 151.700039,273.109514 151.252613,273.635651 C150.805186,274.162572 150.457618,274.762415 150.213005,275.43518 C149.967617,276.107946 149.844536,276.795609 149.844536,277.49817 C149.844536,278.199948 149.967617,278.887611 150.213005,279.560376 C150.457618,280.233142 150.805186,280.832985 151.252613,281.359122 C151.700039,281.886043 152.241904,282.310246 152.876661,282.63173 C153.512192,282.954783 154.234421,283.114741 155.043349,283.114741 C155.880919,283.114741 156.617082,282.954783 157.253387,282.63173 C157.888143,282.310246 158.415301,281.886043 158.83486,281.359122 C159.252871,280.832985 159.571023,280.226085 159.786995,279.537637 C160.003741,278.850758 160.112115,278.156038 160.112115,277.453476 M167,277.453476 C167,278.974647 166.76932,280.437794 166.307186,281.842133 C165.845052,283.246472 165.173913,284.483011 164.292994,285.550183 C163.412076,286.618139 162.336086,287.474386 161.065024,288.118139 C159.793962,288.760324 158.350277,289.082593 156.733196,289.082593 C155.404077,289.082593 154.147723,288.812075 152.964134,288.27104 C151.778996,287.730005 150.855503,286.991375 150.19133,286.055149 L150.104632,286.055149 L150.104632,299 L143,299 L143,266.614741 L149.757838,266.614741 L149.757838,269.291688 L149.887885,269.291688 C150.552058,268.413487 151.469359,267.645844 152.639014,266.987193 C153.80867,266.328542 155.188105,266 156.775771,266 C158.33557,266 159.750613,266.307371 161.022449,266.921328 C162.291962,267.536069 163.367953,268.369577 164.249645,269.423419 C165.12979,270.476477 165.80867,271.698118 166.286286,273.087559 C166.762353,274.476999 167,275.933089 167,277.453476" id="Fill-8" fill="#FEFEFE"></path>
                <path d="M184.368379,278.98682 L183.4394,278.98682 C182.643921,278.98682 181.840543,279.023541 181.030056,279.096202 C180.219568,279.168863 179.497555,279.307935 178.864016,279.511855 C178.229687,279.715776 177.706741,280.014233 177.294388,280.407229 C176.881244,280.801006 176.675858,281.319009 176.675858,281.960459 C176.675858,282.368299 176.771441,282.718323 176.963399,283.008968 C177.154567,283.301175 177.397871,283.534004 177.692522,283.709016 C177.987173,283.884027 178.326061,284.008255 178.709186,284.080916 C179.091521,284.153577 179.461217,284.190298 179.814324,284.190298 C181.288369,284.190298 182.414836,283.78949 183.196885,282.987873 C183.977355,282.186256 184.368379,281.100245 184.368379,279.729839 L184.368379,278.98682 Z M171.060901,269.672906 C172.357207,268.448604 173.868379,267.530573 175.592838,266.918031 C177.316506,266.306271 179.078092,266 180.875226,266 C182.732395,266 184.302024,266.225797 185.584111,266.67739 C186.866198,267.129764 187.90577,267.829812 188.700459,268.776751 C189.496727,269.724472 190.07892,270.919084 190.447036,272.362151 C190.815152,273.805218 191,275.518615 191,277.5 L191,288.475746 L184.368379,288.475746 L184.368379,286.158401 L184.235668,286.158401 C183.675594,287.061587 182.827979,287.760853 181.693613,288.256199 C180.558456,288.752327 179.328506,289 178.001392,289 C177.117439,289 176.203468,288.883586 175.261059,288.649976 C174.31707,288.417148 173.455236,288.038216 172.673977,287.51318 C171.893507,286.988145 171.252069,286.28966 170.751241,285.4146 C170.249624,284.539541 170,283.462124 170,282.178443 C170,280.604117 170.433682,279.336062 171.304206,278.374278 C172.173149,277.412494 173.293297,276.668694 174.663858,276.144439 C176.034419,275.619403 177.55981,275.26938 179.240032,275.095149 C180.920253,274.920137 182.555447,274.832631 184.147194,274.832631 L184.147194,274.482608 C184.147194,273.404409 183.763279,272.609824 182.997818,272.100414 C182.230778,271.589442 181.288369,271.334737 180.168221,271.334737 C179.136548,271.334737 178.141213,271.552721 177.183795,271.990251 C176.225587,272.426999 175.40799,272.952035 174.730214,273.564576 L171.060901,269.672906 Z" id="Fill-10" fill="#FEFEFE"></path>
                <path d="M209.702853,272.403071 C209.391304,272.317083 209.087336,272.259501 208.790947,272.230326 C208.4938,272.202687 208.202718,272.1881 207.920732,272.1881 C206.987601,272.1881 206.203043,272.359309 205.5663,272.702495 C204.930316,273.045681 204.420922,273.459501 204.038876,273.944722 C203.65683,274.431478 203.381667,274.958925 203.211869,275.530902 C203.04207,276.102111 202.95793,276.601919 202.95793,277.029559 L202.95793,288 L196,288 L196,266.628023 L202.703232,266.628023 L202.703232,269.721305 L202.787373,269.721305 C203.324815,268.62572 204.088148,267.731286 205.078131,267.039539 C206.068114,266.346257 207.213493,266 208.515025,266 C208.797769,266 209.072933,266.015355 209.342033,266.043762 C209.610374,266.072169 209.830202,266.115931 210,266.172745 L209.702853,272.403071 Z" id="Fill-12" fill="#FEFEFE"></path>
                <path d="M227.308328,275.026465 C227.308328,273.898254 226.946466,272.929775 226.222742,272.118704 C225.498227,271.309183 224.412642,270.904423 222.965986,270.904423 C222.256515,270.904423 221.606431,271.012204 221.015733,271.230092 C220.424243,271.44643 219.907185,271.743409 219.464557,272.118704 C219.021138,272.494774 218.667195,272.936754 218.401143,273.442317 C218.135091,273.948655 217.987021,274.47748 217.957724,275.026465 L227.308328,275.026465 Z M234,277.760535 L234,278.628987 C234,278.918212 233.984955,279.192704 233.95645,279.45324 L217.957724,279.45324 C218.01711,280.06038 218.201604,280.610141 218.511998,281.102522 C218.821599,281.594903 219.220677,282.021374 219.707646,282.381936 C220.196199,282.74405 220.741763,283.026296 221.348298,283.228676 C221.953248,283.431832 222.581162,283.532634 223.232038,283.532634 C224.384136,283.532634 225.358075,283.3225 226.15623,282.903007 C226.954384,282.48429 227.603677,281.941508 228.106483,281.276212 L233.158295,284.40031 C232.123386,285.875902 230.756705,287.011867 229.059042,287.806655 C227.359004,288.602218 225.387372,289 223.142562,289 C221.487658,289 219.922229,288.746443 218.445485,288.240881 C216.967157,287.735318 215.675698,286.997134 214.567942,286.027881 C213.460185,285.058627 212.587599,283.865282 211.95256,282.44707 C211.31752,281.030409 211,279.409817 211,277.586845 C211,275.822028 211.310394,274.223923 211.931181,272.791754 C212.551176,271.359585 213.393672,270.144528 214.457087,269.146585 C215.520501,268.148641 216.775536,267.374789 218.223775,266.825029 C219.670431,266.275268 221.237443,266 222.920852,266 C224.545667,266 226.038248,266.268289 227.397012,266.803317 C228.755775,267.338345 229.922918,268.112197 230.897649,269.124874 C231.873171,270.13755 232.633318,271.366563 233.180466,272.813465 C233.72603,274.260367 234,275.909649 234,277.760535 L234,277.760535 Z" id="Fill-14" fill="#FEFEFE"></path>
                <polygon id="Fill-16" fill="#FEFEFE" points="144.740889 341 144.914608 319.063573 144.784898 319.063573 136.834002 341 131.648703 341 123.913218 319.063573 123.783508 319.063573 123.956455 341 117 341 117 310 127.513434 310 134.478382 329.878054 134.6521 329.878054 141.314392 310 152 310 152 341"></polygon>
                <path d="M174.142525,330.413155 C174.142525,329.718394 174.02698,329.039916 173.79589,328.373845 C173.564025,327.70855 173.231348,327.12312 172.797861,326.616782 C172.363598,326.110444 171.827749,325.69793 171.191089,325.379239 C170.555204,325.061324 169.816957,324.902367 168.978675,324.902367 C168.138841,324.902367 167.40137,325.061324 166.76471,325.379239 C166.128049,325.69793 165.599179,326.110444 165.180426,326.616782 C164.760897,327.12312 164.442955,327.70855 164.225823,328.373845 C164.009467,329.039916 163.900126,329.718394 163.900126,330.413155 C163.900126,331.107916 164.009467,331.787169 164.225823,332.45324 C164.442955,333.118535 164.768652,333.719473 165.202914,334.253725 C165.636402,334.790304 166.171476,335.216 166.808136,335.533915 C167.444021,335.853381 168.181492,336.011564 169.021325,336.011564 C169.861159,336.011564 170.59863,335.853381 171.23529,335.533915 C171.871175,335.216 172.407024,334.790304 172.840512,334.253725 C173.274775,333.719473 173.600472,333.118535 173.817603,332.45324 C174.033959,331.787169 174.142525,331.107916 174.142525,330.413155 M181,330.413155 C181,332.177972 180.681282,333.776853 180.045397,335.209022 C179.408737,336.640415 178.540987,337.856247 177.441371,338.854191 C176.341756,339.852134 175.068435,340.626762 173.622185,341.175747 C172.175159,341.724732 170.627322,342 168.978675,342 C167.357168,342 165.817086,341.724732 164.356102,341.175747 C162.894342,340.626762 161.621797,339.852134 160.536916,338.854191 C159.452034,337.856247 158.590488,336.640415 157.954603,335.209022 C157.317942,333.776853 157,332.177972 157,330.413155 C157,328.649113 157.317942,327.057987 157.954603,325.639775 C158.590488,324.223114 159.452034,323.022015 160.536916,322.037253 C161.621797,321.054818 162.894342,320.301901 164.356102,319.780831 C165.817086,319.260535 167.357168,319 168.978675,319 C170.627322,319 172.175159,319.260535 173.622185,319.780831 C175.068435,320.301901 176.341756,321.054818 177.441371,322.037253 C178.540987,323.022015 179.408737,324.223114 180.045397,325.639775 C180.681282,327.057987 181,328.649113 181,330.413155" id="Fill-18" fill="#FEFEFE"></path>
                <path d="M213.824742,341 L213.824742,329.312476 C213.824742,328.710557 213.780967,328.130902 213.693416,327.572745 C213.605865,327.01382 213.445616,326.533973 213.211886,326.133205 C212.978157,325.73167 212.665475,325.409213 212.271497,325.165835 C211.8783,324.923225 211.36003,324.800384 210.718252,324.800384 C210.105396,324.800384 209.573837,324.929367 209.121231,325.187332 C208.668625,325.445298 208.29028,325.789251 207.983852,326.218426 C207.678206,326.649136 207.451512,327.142802 207.306115,327.701727 C207.159937,328.259885 207.087238,328.839539 207.087238,329.441459 L207.087238,341 L199.91198,341 L199.91198,328.796545 C199.91198,327.565835 199.66418,326.590787 199.16858,325.87524 C198.672198,325.158925 197.884241,324.800384 196.806271,324.800384 C195.668111,324.800384 194.786349,325.244914 194.159423,326.133205 C193.531715,327.021497 193.219033,328.109405 193.219033,329.398464 L193.219033,341 L186,341 L186,319.601919 L192.956381,319.601919 L192.956381,322.566219 L193.043932,322.566219 C193.306584,322.108637 193.634118,321.664107 194.028097,321.234933 C194.422075,320.804223 194.895788,320.424952 195.450016,320.095585 C196.003462,319.766987 196.623353,319.501344 197.308907,319.30096 C197.994461,319.101344 198.745678,319 199.562559,319 C201.137692,319 202.47206,319.315547 203.565663,319.945106 C204.658485,320.575432 205.512105,321.478311 206.124179,322.652975 C206.853509,321.535125 207.786863,320.647601 208.924242,319.988868 C210.062402,319.329367 211.446799,319 213.081342,319 C214.568142,319 215.81496,319.264875 216.821794,319.795393 C217.827847,320.325144 218.63691,321.013052 219.248984,321.857582 C219.862621,322.702879 220.306629,323.647985 220.583352,324.693666 C220.860857,325.739347 221,326.763532 221,327.766219 L221,341 L213.824742,341 Z" id="Fill-20" fill="#FEFEFE"></path>
                <path d="M241.308328,328.026465 C241.308328,326.898254 240.946466,325.929775 240.222742,325.118704 C239.498227,324.309183 238.412642,323.904423 236.965986,323.904423 C236.256515,323.904423 235.606431,324.012204 235.015733,324.230092 C234.424243,324.44643 233.907185,324.743409 233.464557,325.118704 C233.021138,325.494774 232.667195,325.936754 232.401143,326.442317 C232.135091,326.948655 231.987021,327.47748 231.957724,328.026465 L241.308328,328.026465 Z M248,330.760535 L248,331.628987 C248,331.918212 247.984955,332.192704 247.95645,332.45324 L231.957724,332.45324 C232.01711,333.06038 232.201604,333.610141 232.511998,334.102522 C232.821599,334.594903 233.220677,335.021374 233.707646,335.381936 C234.196199,335.74405 234.741763,336.026296 235.348298,336.228676 C235.953248,336.431832 236.581162,336.532634 237.232038,336.532634 C238.384136,336.532634 239.358075,336.3225 240.15623,335.903007 C240.954384,335.48429 241.603677,334.941508 242.106483,334.276212 L247.158295,337.40031 C246.123386,338.875902 244.756705,340.011867 243.059042,340.806655 C241.359004,341.602218 239.387372,342 237.142562,342 C235.487658,342 233.922229,341.746443 232.445485,341.240881 C230.967157,340.735318 229.675698,339.997134 228.567942,339.027881 C227.460185,338.058627 226.587599,336.865282 225.95256,335.44707 C225.31752,334.030409 225,332.409817 225,330.586845 C225,328.822028 225.310394,327.223923 225.931181,325.791754 C226.551176,324.359585 227.393672,323.144528 228.457087,322.146585 C229.520501,321.148641 230.775536,320.374789 232.223775,319.825029 C233.670431,319.275268 235.237443,319 236.920852,319 C238.545667,319 240.038248,319.268289 241.397012,319.803317 C242.755775,320.338345 243.922918,321.112197 244.897649,322.124874 C245.873171,323.13755 246.633318,324.366563 247.180466,325.813465 C247.72603,327.260367 248,328.909649 248,330.760535 L248,330.760535 Z" id="Fill-22" fill="#FEFEFE"></path>
                <path d="M265.957545,341 L265.957545,329.312476 C265.957545,328.710557 265.907972,328.13858 265.808825,327.593474 C265.708153,327.049904 265.544943,326.570058 265.316906,326.153935 C265.088869,325.739347 264.768549,325.409213 264.35671,325.165835 C263.944107,324.923225 263.424732,324.800384 262.798584,324.800384 C262.172435,324.800384 261.624841,324.923225 261.155802,325.165835 C260.686,325.409213 260.294752,325.746257 259.982059,326.175432 C259.668604,326.605374 259.433703,327.099808 259.277356,327.657965 C259.12101,328.216891 259.043218,328.796545 259.043218,329.398464 L259.043218,341 L252,341 L252,319.601919 L258.786962,319.601919 L258.786962,322.566219 L258.872381,322.566219 C259.128636,322.108637 259.461921,321.657965 259.874523,321.213436 C260.287125,320.768906 260.771418,320.389635 261.326639,320.074088 C261.881097,319.759309 262.485128,319.501344 263.141021,319.30096 C263.794625,319.101344 264.491701,319 265.23225,319 C266.654621,319 267.863447,319.257965 268.860251,319.773896 C269.855529,320.28906 270.659379,320.95547 271.2718,321.771593 C271.883457,322.588484 272.324278,323.526679 272.595025,324.58618 C272.865008,325.646449 273,326.706718 273,327.766219 L273,341 L265.957545,341 Z" id="Fill-24" fill="#FEFEFE"></path>
                <path d="M286.756356,325.051707 L286.756356,333.382634 C286.756356,334.405854 286.958158,335.173073 287.361762,335.685073 C287.764565,336.196293 288.488488,336.451512 289.535135,336.451512 C289.893894,336.451512 290.275075,336.423415 290.677878,336.364878 C291.080681,336.307122 291.417017,336.219707 291.686086,336.102634 L291.776577,341.34439 C291.268068,341.51922 290.625025,341.672195 289.848248,341.803317 C289.071471,341.934439 288.294695,342 287.517918,342 C286.023624,342 284.76957,341.816585 283.753353,341.452878 C282.737137,341.08761 281.922723,340.562341 281.310911,339.875512 C280.698298,339.189463 280.257858,338.371512 279.988789,337.424 C279.71972,336.474927 279.585185,335.415805 279.585185,334.248195 L279.585185,325.051707 L276,325.051707 L276,319.722537 L279.54034,319.722537 L279.54034,314 L286.756356,314 L286.756356,319.722537 L292,319.722537 L292,325.051707 L286.756356,325.051707 Z" id="Fill-26" fill="#FEFEFE"></path>
                <path d="M308.078685,326.073225 C307.497029,325.52424 306.814926,325.060549 306.03004,324.684478 C305.245154,324.309183 304.418221,324.119985 303.546125,324.119985 C302.877259,324.119985 302.260563,324.250253 301.69448,324.510788 C301.127618,324.771324 300.844187,325.220282 300.844187,325.856888 C300.844187,326.464028 301.155649,326.897478 301.780911,327.158014 C302.405393,327.418549 303.415311,327.707774 304.809885,328.026465 C305.623581,328.19938 306.443506,328.446733 307.271997,328.763873 C308.099709,329.082564 308.847219,329.502057 309.516864,330.022352 C310.184173,330.543423 310.722224,331.180028 311.128683,331.932169 C311.535142,332.68431 311.73915,333.581451 311.73915,334.622042 C311.73915,335.982874 311.462727,337.132796 310.911438,338.072584 C310.358592,339.012373 309.639892,339.772268 308.753781,340.350718 C307.867669,340.929944 306.872546,341.348662 305.768411,341.609197 C304.664276,341.869732 303.560141,342 302.456785,342 C300.684562,342 298.948158,341.717753 297.249129,341.15326 C295.549322,340.589542 294.132945,339.75831 293,338.658014 L297.009303,334.449127 C297.647801,335.143112 298.431909,335.722338 299.363182,336.184478 C300.292119,336.648169 301.280234,336.879239 302.32597,336.879239 C302.906848,336.879239 303.480718,336.742769 304.046801,336.466725 C304.613663,336.192232 304.897094,335.707606 304.897094,335.012845 C304.897094,334.348324 304.548256,333.855944 303.851359,333.538028 C303.154461,333.220113 302.064342,332.88669 300.582558,332.53931 C299.826483,332.365619 299.071964,332.134549 298.316667,331.844549 C297.560592,331.556099 296.885496,331.165296 296.289824,330.67369 C295.694931,330.182085 295.20827,329.574944 294.829843,328.850718 C294.452195,328.128043 294.26376,327.259591 294.26376,326.247691 C294.26376,324.945014 294.539404,323.838514 295.091472,322.92664 C295.643539,322.016317 296.355231,321.27193 297.226548,320.692704 C298.099422,320.113479 299.064178,319.687782 300.125487,319.411739 C301.185238,319.138022 302.238761,319 303.285275,319 C304.911889,319 306.502684,319.253557 308.056883,319.759119 C309.610303,320.266233 310.925454,321.025352 312,322.037253 L308.078685,326.073225 Z" id="Fill-28" fill="#FEFEFE"></path>
            </g>
        </g>
    </g>
</svg>